<mxfile host="app.diagrams.net" modified="2023-04-19T11:06:49.840Z" agent="Mozilla/5.0 (Windows NT 10.0; Win64; x64) AppleWebKit/537.36 (KHTML, like Gecko) Chrome/112.0.0.0 Safari/537.36 Edg/112.0.1722.48" etag="h_hN1ZrGzEHqNGrF4heo" version="21.1.9" type="device">
  <diagram id="C5RBs43oDa-KdzZeNtuy" name="Page-1">
    <mxGraphModel dx="1969" dy="981" grid="0" gridSize="10" guides="0" tooltips="1" connect="1" arrows="1" fold="1" page="1" pageScale="1" pageWidth="827" pageHeight="1169" math="0" shadow="0">
      <root>
        <mxCell id="WIyWlLk6GJQsqaUBKTNV-0" />
        <mxCell id="WIyWlLk6GJQsqaUBKTNV-1" parent="WIyWlLk6GJQsqaUBKTNV-0" />
        <mxCell id="Ue17VunKUcNrUkERaFJt-0" value="Toernooi" style="swimlane;fontStyle=1;align=center;verticalAlign=top;childLayout=stackLayout;horizontal=1;startSize=26;horizontalStack=0;resizeParent=1;resizeParentMax=0;resizeLast=0;collapsible=1;marginBottom=0;" parent="WIyWlLk6GJQsqaUBKTNV-1" vertex="1">
          <mxGeometry x="222" y="203" width="299" height="60" as="geometry">
            <mxRectangle x="40" y="40" width="90" height="30" as="alternateBounds" />
          </mxGeometry>
        </mxCell>
        <mxCell id="Ue17VunKUcNrUkERaFJt-2" value="" style="line;strokeWidth=1;fillColor=none;align=left;verticalAlign=middle;spacingTop=-1;spacingLeft=3;spacingRight=3;rotatable=0;labelPosition=right;points=[];portConstraint=eastwest;strokeColor=inherit;" parent="Ue17VunKUcNrUkERaFJt-0" vertex="1">
          <mxGeometry y="26" width="299" height="8" as="geometry" />
        </mxCell>
        <mxCell id="Ue17VunKUcNrUkERaFJt-3" value="+ Edit (Name : string, MaxPlayers: int) : void" style="text;strokeColor=none;fillColor=none;align=left;verticalAlign=top;spacingLeft=4;spacingRight=4;overflow=hidden;rotatable=0;points=[[0,0.5],[1,0.5]];portConstraint=eastwest;" parent="Ue17VunKUcNrUkERaFJt-0" vertex="1">
          <mxGeometry y="34" width="299" height="26" as="geometry" />
        </mxCell>
        <mxCell id="xIhYN-znWcPmmOZYE6xA-15" value="Player" style="swimlane;fontStyle=1;align=center;verticalAlign=top;childLayout=stackLayout;horizontal=1;startSize=26;horizontalStack=0;resizeParent=1;resizeParentMax=0;resizeLast=0;collapsible=1;marginBottom=0;" parent="WIyWlLk6GJQsqaUBKTNV-1" vertex="1">
          <mxGeometry x="1122" y="225" width="279" height="86" as="geometry" />
        </mxCell>
        <mxCell id="xIhYN-znWcPmmOZYE6xA-17" value="" style="line;strokeWidth=1;fillColor=none;align=left;verticalAlign=middle;spacingTop=-1;spacingLeft=3;spacingRight=3;rotatable=0;labelPosition=right;points=[];portConstraint=eastwest;strokeColor=inherit;" parent="xIhYN-znWcPmmOZYE6xA-15" vertex="1">
          <mxGeometry y="26" width="279" height="8" as="geometry" />
        </mxCell>
        <mxCell id="xIhYN-znWcPmmOZYE6xA-19" value="+ Edit(name: string) : void" style="text;strokeColor=none;fillColor=none;align=left;verticalAlign=top;spacingLeft=4;spacingRight=4;overflow=hidden;rotatable=0;points=[[0,0.5],[1,0.5]];portConstraint=eastwest;" parent="xIhYN-znWcPmmOZYE6xA-15" vertex="1">
          <mxGeometry y="34" width="279" height="26" as="geometry" />
        </mxCell>
        <mxCell id="HdlZSG4VhAK80KxggW3n-2" value="+ UpdateRanking(newRating: int) : void" style="text;strokeColor=none;fillColor=none;align=left;verticalAlign=top;spacingLeft=4;spacingRight=4;overflow=hidden;rotatable=0;points=[[0,0.5],[1,0.5]];portConstraint=eastwest;" parent="xIhYN-znWcPmmOZYE6xA-15" vertex="1">
          <mxGeometry y="60" width="279" height="26" as="geometry" />
        </mxCell>
        <mxCell id="xIhYN-znWcPmmOZYE6xA-25" value="Match" style="swimlane;fontStyle=1;align=center;verticalAlign=top;childLayout=stackLayout;horizontal=1;startSize=26;horizontalStack=0;resizeParent=1;resizeParentMax=0;resizeLast=0;collapsible=1;marginBottom=0;" parent="WIyWlLk6GJQsqaUBKTNV-1" vertex="1">
          <mxGeometry x="1094" y="626" width="311" height="86" as="geometry" />
        </mxCell>
        <mxCell id="xIhYN-znWcPmmOZYE6xA-28" value="" style="line;strokeWidth=1;fillColor=none;align=left;verticalAlign=middle;spacingTop=-1;spacingLeft=3;spacingRight=3;rotatable=0;labelPosition=right;points=[];portConstraint=eastwest;strokeColor=inherit;" parent="xIhYN-znWcPmmOZYE6xA-25" vertex="1">
          <mxGeometry y="26" width="311" height="8" as="geometry" />
        </mxCell>
        <mxCell id="xIhYN-znWcPmmOZYE6xA-29" value="+ EditStartTime(StartTime: DateTime) : void" style="text;strokeColor=none;fillColor=none;align=left;verticalAlign=top;spacingLeft=4;spacingRight=4;overflow=hidden;rotatable=0;points=[[0,0.5],[1,0.5]];portConstraint=eastwest;" parent="xIhYN-znWcPmmOZYE6xA-25" vertex="1">
          <mxGeometry y="34" width="311" height="26" as="geometry" />
        </mxCell>
        <mxCell id="xIhYN-znWcPmmOZYE6xA-41" value="+ UpdateResult(newresult: MatchResult) : void" style="text;strokeColor=none;fillColor=none;align=left;verticalAlign=top;spacingLeft=4;spacingRight=4;overflow=hidden;rotatable=0;points=[[0,0.5],[1,0.5]];portConstraint=eastwest;" parent="xIhYN-znWcPmmOZYE6xA-25" vertex="1">
          <mxGeometry y="60" width="311" height="26" as="geometry" />
        </mxCell>
        <mxCell id="xIhYN-znWcPmmOZYE6xA-47" value="Bracket" style="swimlane;fontStyle=1;align=center;verticalAlign=top;childLayout=stackLayout;horizontal=1;startSize=26;horizontalStack=0;resizeParent=1;resizeParentMax=0;resizeLast=0;collapsible=1;marginBottom=0;" parent="WIyWlLk6GJQsqaUBKTNV-1" vertex="1">
          <mxGeometry x="251" y="617" width="328" height="86" as="geometry" />
        </mxCell>
        <mxCell id="xIhYN-znWcPmmOZYE6xA-49" value="" style="line;strokeWidth=1;fillColor=none;align=left;verticalAlign=middle;spacingTop=-1;spacingLeft=3;spacingRight=3;rotatable=0;labelPosition=right;points=[];portConstraint=eastwest;strokeColor=inherit;" parent="xIhYN-znWcPmmOZYE6xA-47" vertex="1">
          <mxGeometry y="26" width="328" height="8" as="geometry" />
        </mxCell>
        <mxCell id="xIhYN-znWcPmmOZYE6xA-50" value="+ Edit(type: BracketType) : void" style="text;strokeColor=none;fillColor=none;align=left;verticalAlign=top;spacingLeft=4;spacingRight=4;overflow=hidden;rotatable=0;points=[[0,0.5],[1,0.5]];portConstraint=eastwest;" parent="xIhYN-znWcPmmOZYE6xA-47" vertex="1">
          <mxGeometry y="34" width="328" height="26" as="geometry" />
        </mxCell>
        <mxCell id="HdlZSG4VhAK80KxggW3n-15" value="+ CreateMatches(players: Players[]) : void" style="text;strokeColor=none;fillColor=none;align=left;verticalAlign=top;spacingLeft=4;spacingRight=4;overflow=hidden;rotatable=0;points=[[0,0.5],[1,0.5]];portConstraint=eastwest;" parent="xIhYN-znWcPmmOZYE6xA-47" vertex="1">
          <mxGeometry y="60" width="328" height="26" as="geometry" />
        </mxCell>
        <mxCell id="HdlZSG4VhAK80KxggW3n-11" value="&lt;p style=&quot;margin:0px;margin-top:4px;text-align:center;&quot;&gt;&lt;i&gt;&amp;lt;&amp;lt;enumeration&amp;gt;&amp;gt;&lt;/i&gt;&lt;br&gt;&lt;b&gt;MatchResult&lt;/b&gt;&lt;/p&gt;&lt;hr size=&quot;1&quot;&gt;&lt;p style=&quot;margin:0px;margin-left:4px;&quot;&gt;&lt;/p&gt;&lt;p style=&quot;margin:0px;margin-left:4px;&quot;&gt;&lt;span style=&quot;background-color: initial;&quot;&gt;WinP1&lt;/span&gt;&lt;br&gt;&lt;/p&gt;&lt;p style=&quot;margin:0px;margin-left:4px;&quot;&gt;WinP2&lt;/p&gt;&lt;p style=&quot;margin:0px;margin-left:4px;&quot;&gt;Draw&lt;/p&gt;" style="verticalAlign=top;align=left;overflow=fill;fontSize=12;fontFamily=Helvetica;html=1;whiteSpace=wrap;" parent="WIyWlLk6GJQsqaUBKTNV-1" vertex="1">
          <mxGeometry x="1169" y="821" width="136" height="94" as="geometry" />
        </mxCell>
        <mxCell id="HdlZSG4VhAK80KxggW3n-14" value="&lt;p style=&quot;margin:0px;margin-top:4px;text-align:center;&quot;&gt;&lt;i&gt;&amp;lt;&amp;lt;enumeration&amp;gt;&amp;gt;&lt;/i&gt;&lt;br&gt;&lt;b&gt;BracketType&lt;/b&gt;&lt;/p&gt;&lt;hr size=&quot;1&quot;&gt;&lt;p style=&quot;margin:0px;margin-left:4px;&quot;&gt;&lt;/p&gt;&lt;p style=&quot;margin:0px;margin-left:4px;&quot;&gt;round robin&lt;/p&gt;&lt;p style=&quot;margin:0px;margin-left:4px;&quot;&gt;elemination&lt;/p&gt;" style="verticalAlign=top;align=left;overflow=fill;fontSize=12;fontFamily=Helvetica;html=1;whiteSpace=wrap;" parent="WIyWlLk6GJQsqaUBKTNV-1" vertex="1">
          <mxGeometry x="376" y="836" width="136" height="82" as="geometry" />
        </mxCell>
        <mxCell id="HdlZSG4VhAK80KxggW3n-19" value="" style="endArrow=diamondThin;endFill=1;endSize=24;html=1;rounded=0;entryX=0.25;entryY=0;entryDx=0;entryDy=0;exitX=0.391;exitY=0.962;exitDx=0;exitDy=0;exitPerimeter=0;" parent="WIyWlLk6GJQsqaUBKTNV-1" source="Ue17VunKUcNrUkERaFJt-3" target="xIhYN-znWcPmmOZYE6xA-47" edge="1">
          <mxGeometry width="160" relative="1" as="geometry">
            <mxPoint x="370.90599999999995" y="427.46799999999996" as="sourcePoint" />
            <mxPoint x="636" y="617" as="targetPoint" />
          </mxGeometry>
        </mxCell>
        <mxCell id="HdlZSG4VhAK80KxggW3n-24" value="" style="endArrow=none;html=1;rounded=0;entryX=0.25;entryY=0;entryDx=0;entryDy=0;exitX=0.49;exitY=1.057;exitDx=0;exitDy=0;exitPerimeter=0;" parent="WIyWlLk6GJQsqaUBKTNV-1" source="HdlZSG4VhAK80KxggW3n-15" target="HdlZSG4VhAK80KxggW3n-14" edge="1">
          <mxGeometry width="50" height="50" relative="1" as="geometry">
            <mxPoint x="414.3440000000003" y="728.6619999999998" as="sourcePoint" />
            <mxPoint x="686" y="643" as="targetPoint" />
          </mxGeometry>
        </mxCell>
        <mxCell id="HdlZSG4VhAK80KxggW3n-25" value="" style="endArrow=none;html=1;rounded=0;exitX=0.5;exitY=0;exitDx=0;exitDy=0;entryX=0.414;entryY=0.972;entryDx=0;entryDy=0;entryPerimeter=0;" parent="WIyWlLk6GJQsqaUBKTNV-1" source="HdlZSG4VhAK80KxggW3n-11" target="xIhYN-znWcPmmOZYE6xA-41" edge="1">
          <mxGeometry width="50" height="50" relative="1" as="geometry">
            <mxPoint x="677" y="693" as="sourcePoint" />
            <mxPoint x="1233.6390000000001" y="739.768" as="targetPoint" />
          </mxGeometry>
        </mxCell>
        <mxCell id="HdlZSG4VhAK80KxggW3n-34" value="1..1" style="text;html=1;strokeColor=none;fillColor=none;align=center;verticalAlign=middle;whiteSpace=wrap;rounded=0;" parent="WIyWlLk6GJQsqaUBKTNV-1" vertex="1">
          <mxGeometry x="326" y="266" width="60" height="30" as="geometry" />
        </mxCell>
        <mxCell id="HdlZSG4VhAK80KxggW3n-35" value="1..1" style="text;html=1;strokeColor=none;fillColor=none;align=center;verticalAlign=middle;whiteSpace=wrap;rounded=0;" parent="WIyWlLk6GJQsqaUBKTNV-1" vertex="1">
          <mxGeometry x="319" y="569" width="60" height="30" as="geometry" />
        </mxCell>
        <mxCell id="HdlZSG4VhAK80KxggW3n-38" value="Bracket" style="text;html=1;strokeColor=none;fillColor=none;align=center;verticalAlign=middle;whiteSpace=wrap;rounded=0;" parent="WIyWlLk6GJQsqaUBKTNV-1" vertex="1">
          <mxGeometry x="329" y="429" width="60" height="30" as="geometry" />
        </mxCell>
        <mxCell id="KYpN7mPgzwmwDajfqQgc-4" value="&lt;p style=&quot;margin:0px;margin-top:4px;text-align:center;&quot;&gt;&lt;i&gt;&amp;lt;&amp;lt;Interface&amp;gt;&amp;gt;&lt;/i&gt;&lt;br&gt;&lt;b&gt;IPlayerCollection&lt;/b&gt;&lt;/p&gt;&lt;hr size=&quot;1&quot;&gt;&lt;p style=&quot;margin:0px;margin-left:4px;&quot;&gt;&lt;br&gt;&lt;/p&gt;&lt;hr size=&quot;1&quot;&gt;&lt;p style=&quot;margin:0px;margin-left:4px;&quot;&gt;+ AddPlayer (string name) : void&lt;/p&gt;&lt;p style=&quot;margin:0px;margin-left:4px;&quot;&gt;+ AddPlayer (string name, int rating) : void&lt;br&gt;+ Remove (string name) : void&lt;br&gt;&lt;/p&gt;&lt;p style=&quot;margin:0px;margin-left:4px;&quot;&gt;+ GetPlayer (string name) : Player&lt;/p&gt;&lt;p style=&quot;margin:0px;margin-left:4px;&quot;&gt;+ GetPlayer (int PlayerID) : Player&lt;/p&gt;&lt;p style=&quot;margin:0px;margin-left:4px;&quot;&gt;+ GetPlayers (int PlayerListID) : Player[]&lt;/p&gt;&lt;p style=&quot;margin:0px;margin-left:4px;&quot;&gt;+ GetAllPlayers () : Player []&lt;/p&gt;&lt;p style=&quot;margin:0px;margin-left:4px;&quot;&gt;&lt;br&gt;&lt;/p&gt;" style="verticalAlign=top;align=left;overflow=fill;fontSize=12;fontFamily=Helvetica;html=1;whiteSpace=wrap;" parent="WIyWlLk6GJQsqaUBKTNV-1" vertex="1">
          <mxGeometry x="712" y="102" width="258" height="185" as="geometry" />
        </mxCell>
        <mxCell id="KYpN7mPgzwmwDajfqQgc-10" value="Players" style="swimlane;fontStyle=1;align=center;verticalAlign=top;childLayout=stackLayout;horizontal=1;startSize=26;horizontalStack=0;resizeParent=1;resizeParentMax=0;resizeLast=0;collapsible=1;marginBottom=0;" parent="WIyWlLk6GJQsqaUBKTNV-1" vertex="1">
          <mxGeometry x="687" y="357" width="279" height="138" as="geometry" />
        </mxCell>
        <mxCell id="KYpN7mPgzwmwDajfqQgc-25" value="- _PlayersData : IPlayerCollection" style="text;strokeColor=none;fillColor=none;align=left;verticalAlign=top;spacingLeft=4;spacingRight=4;overflow=hidden;rotatable=0;points=[[0,0.5],[1,0.5]];portConstraint=eastwest;" parent="KYpN7mPgzwmwDajfqQgc-10" vertex="1">
          <mxGeometry y="26" width="279" height="26" as="geometry" />
        </mxCell>
        <mxCell id="KYpN7mPgzwmwDajfqQgc-28" value="- MaxPlayers : int?" style="text;strokeColor=none;fillColor=none;align=left;verticalAlign=top;spacingLeft=4;spacingRight=4;overflow=hidden;rotatable=0;points=[[0,0.5],[1,0.5]];portConstraint=eastwest;" parent="KYpN7mPgzwmwDajfqQgc-10" vertex="1">
          <mxGeometry y="52" width="279" height="26" as="geometry" />
        </mxCell>
        <mxCell id="KYpN7mPgzwmwDajfqQgc-11" value="" style="line;strokeWidth=1;fillColor=none;align=left;verticalAlign=middle;spacingTop=-1;spacingLeft=3;spacingRight=3;rotatable=0;labelPosition=right;points=[];portConstraint=eastwest;strokeColor=inherit;" parent="KYpN7mPgzwmwDajfqQgc-10" vertex="1">
          <mxGeometry y="78" width="279" height="8" as="geometry" />
        </mxCell>
        <mxCell id="KYpN7mPgzwmwDajfqQgc-26" value="- DoesPlayerExist(string name) : bool" style="text;strokeColor=none;fillColor=none;align=left;verticalAlign=top;spacingLeft=4;spacingRight=4;overflow=hidden;rotatable=0;points=[[0,0.5],[1,0.5]];portConstraint=eastwest;" parent="KYpN7mPgzwmwDajfqQgc-10" vertex="1">
          <mxGeometry y="86" width="279" height="26" as="geometry" />
        </mxCell>
        <mxCell id="KYpN7mPgzwmwDajfqQgc-32" value="- CanAddPlayer(sting name) : bool" style="text;strokeColor=none;fillColor=none;align=left;verticalAlign=top;spacingLeft=4;spacingRight=4;overflow=hidden;rotatable=0;points=[[0,0.5],[1,0.5]];portConstraint=eastwest;" parent="KYpN7mPgzwmwDajfqQgc-10" vertex="1">
          <mxGeometry y="112" width="279" height="26" as="geometry" />
        </mxCell>
        <mxCell id="KYpN7mPgzwmwDajfqQgc-14" value="Matches" style="swimlane;fontStyle=1;align=center;verticalAlign=top;childLayout=stackLayout;horizontal=1;startSize=26;horizontalStack=0;resizeParent=1;resizeParentMax=0;resizeLast=0;collapsible=1;marginBottom=0;" parent="WIyWlLk6GJQsqaUBKTNV-1" vertex="1">
          <mxGeometry x="712" y="634" width="279" height="112" as="geometry" />
        </mxCell>
        <mxCell id="KYpN7mPgzwmwDajfqQgc-34" value="- _MatchesData : IMatchCollection" style="text;strokeColor=none;fillColor=none;align=left;verticalAlign=top;spacingLeft=4;spacingRight=4;overflow=hidden;rotatable=0;points=[[0,0.5],[1,0.5]];portConstraint=eastwest;" parent="KYpN7mPgzwmwDajfqQgc-14" vertex="1">
          <mxGeometry y="26" width="279" height="26" as="geometry" />
        </mxCell>
        <mxCell id="KYpN7mPgzwmwDajfqQgc-15" value="" style="line;strokeWidth=1;fillColor=none;align=left;verticalAlign=middle;spacingTop=-1;spacingLeft=3;spacingRight=3;rotatable=0;labelPosition=right;points=[];portConstraint=eastwest;strokeColor=inherit;" parent="KYpN7mPgzwmwDajfqQgc-14" vertex="1">
          <mxGeometry y="52" width="279" height="8" as="geometry" />
        </mxCell>
        <mxCell id="-sd4x9SYGmnKzIIS1JAm-4" value="+ FilterMatches(matches: Match[], date: DateOnly) : Match[]" style="text;strokeColor=none;fillColor=none;align=left;verticalAlign=top;spacingLeft=4;spacingRight=4;overflow=hidden;rotatable=0;points=[[0,0.5],[1,0.5]];portConstraint=eastwest;" parent="KYpN7mPgzwmwDajfqQgc-14" vertex="1">
          <mxGeometry y="60" width="279" height="26" as="geometry" />
        </mxCell>
        <mxCell id="-sd4x9SYGmnKzIIS1JAm-3" value="+ FilterMatches(matches: Match[], player: Player) : Match[]" style="text;strokeColor=none;fillColor=none;align=left;verticalAlign=top;spacingLeft=4;spacingRight=4;overflow=hidden;rotatable=0;points=[[0,0.5],[1,0.5]];portConstraint=eastwest;" parent="KYpN7mPgzwmwDajfqQgc-14" vertex="1">
          <mxGeometry y="86" width="279" height="26" as="geometry" />
        </mxCell>
        <mxCell id="KYpN7mPgzwmwDajfqQgc-18" value="" style="endArrow=block;dashed=1;endFill=0;endSize=12;html=1;rounded=0;exitX=0.25;exitY=0;exitDx=0;exitDy=0;entryX=0.25;entryY=1;entryDx=0;entryDy=0;" parent="WIyWlLk6GJQsqaUBKTNV-1" source="KYpN7mPgzwmwDajfqQgc-10" target="KYpN7mPgzwmwDajfqQgc-4" edge="1">
          <mxGeometry width="160" relative="1" as="geometry">
            <mxPoint x="910" y="333" as="sourcePoint" />
            <mxPoint x="1070" y="333" as="targetPoint" />
          </mxGeometry>
        </mxCell>
        <mxCell id="KYpN7mPgzwmwDajfqQgc-19" value="" style="endArrow=diamondThin;endFill=0;endSize=24;html=1;rounded=0;entryX=0;entryY=0.25;entryDx=0;entryDy=0;exitX=1;exitY=0.5;exitDx=0;exitDy=0;" parent="WIyWlLk6GJQsqaUBKTNV-1" source="KYpN7mPgzwmwDajfqQgc-10" target="xIhYN-znWcPmmOZYE6xA-15" edge="1">
          <mxGeometry width="160" relative="1" as="geometry">
            <mxPoint x="1251" y="485" as="sourcePoint" />
            <mxPoint x="1260" y="680" as="targetPoint" />
          </mxGeometry>
        </mxCell>
        <mxCell id="KYpN7mPgzwmwDajfqQgc-20" value="0..n" style="text;html=1;strokeColor=none;fillColor=none;align=center;verticalAlign=middle;whiteSpace=wrap;rounded=0;" parent="WIyWlLk6GJQsqaUBKTNV-1" vertex="1">
          <mxGeometry x="951" y="368" width="60" height="30" as="geometry" />
        </mxCell>
        <mxCell id="KYpN7mPgzwmwDajfqQgc-21" value="0..n" style="text;html=1;strokeColor=none;fillColor=none;align=center;verticalAlign=middle;whiteSpace=wrap;rounded=0;" parent="WIyWlLk6GJQsqaUBKTNV-1" vertex="1">
          <mxGeometry x="1056" y="242" width="60" height="30" as="geometry" />
        </mxCell>
        <mxCell id="KYpN7mPgzwmwDajfqQgc-23" value="" style="endArrow=diamondThin;endFill=0;endSize=24;html=1;rounded=0;entryX=0;entryY=0.5;entryDx=0;entryDy=0;exitX=1;exitY=0.5;exitDx=0;exitDy=0;" parent="WIyWlLk6GJQsqaUBKTNV-1" source="Ue17VunKUcNrUkERaFJt-3" target="KYpN7mPgzwmwDajfqQgc-28" edge="1">
          <mxGeometry width="160" relative="1" as="geometry">
            <mxPoint x="874" y="354" as="sourcePoint" />
            <mxPoint x="1034" y="354" as="targetPoint" />
          </mxGeometry>
        </mxCell>
        <mxCell id="KYpN7mPgzwmwDajfqQgc-24" value="2..2" style="text;html=1;strokeColor=none;fillColor=none;align=center;verticalAlign=middle;whiteSpace=wrap;rounded=0;" parent="WIyWlLk6GJQsqaUBKTNV-1" vertex="1">
          <mxGeometry x="644" y="376" width="60" height="30" as="geometry" />
        </mxCell>
        <mxCell id="KYpN7mPgzwmwDajfqQgc-27" value="&lt;p style=&quot;margin:0px;margin-top:4px;text-align:center;&quot;&gt;&lt;i&gt;&amp;lt;&amp;lt;Interface&amp;gt;&amp;gt;&lt;/i&gt;&lt;br&gt;&lt;b&gt;IMatchCollection&lt;/b&gt;&lt;/p&gt;&lt;hr size=&quot;1&quot;&gt;&lt;p style=&quot;margin:0px;margin-left:4px;&quot;&gt;&lt;br&gt;&lt;/p&gt;&lt;hr size=&quot;1&quot;&gt;&lt;p style=&quot;margin:0px;margin-left:4px;&quot;&gt;+ AddMatch (Match match) : void&lt;/p&gt;&lt;p style=&quot;margin:0px;margin-left:4px;&quot;&gt;+ Remove (int ID) : void&lt;br&gt;&lt;/p&gt;&lt;p style=&quot;margin:0px;margin-left:4px;&quot;&gt;+ GetMatch (Player player) : Match&lt;/p&gt;&lt;p style=&quot;margin:0px;margin-left:4px;&quot;&gt;+ GetMatches(int MatchListID) : Match[]&lt;/p&gt;&lt;p style=&quot;margin:0px;margin-left:4px;&quot;&gt;+ GetMatches () : Match[]&lt;/p&gt;&lt;p style=&quot;margin:0px;margin-left:4px;&quot;&gt;&lt;br&gt;&lt;/p&gt;" style="verticalAlign=top;align=left;overflow=fill;fontSize=12;fontFamily=Helvetica;html=1;whiteSpace=wrap;" parent="WIyWlLk6GJQsqaUBKTNV-1" vertex="1">
          <mxGeometry x="717" y="802" width="258" height="154" as="geometry" />
        </mxCell>
        <mxCell id="KYpN7mPgzwmwDajfqQgc-29" value="" style="endArrow=diamondThin;endFill=0;endSize=24;html=1;rounded=0;exitX=0.25;exitY=0;exitDx=0;exitDy=0;entryX=1.004;entryY=1;entryDx=0;entryDy=0;entryPerimeter=0;" parent="WIyWlLk6GJQsqaUBKTNV-1" source="xIhYN-znWcPmmOZYE6xA-25" target="KYpN7mPgzwmwDajfqQgc-26" edge="1">
          <mxGeometry width="160" relative="1" as="geometry">
            <mxPoint x="976" y="379" as="sourcePoint" />
            <mxPoint x="1132" y="375" as="targetPoint" />
          </mxGeometry>
        </mxCell>
        <mxCell id="KYpN7mPgzwmwDajfqQgc-30" value="1..1" style="text;html=1;strokeColor=none;fillColor=none;align=center;verticalAlign=middle;whiteSpace=wrap;rounded=0;" parent="WIyWlLk6GJQsqaUBKTNV-1" vertex="1">
          <mxGeometry x="969" y="463" width="60" height="30" as="geometry" />
        </mxCell>
        <mxCell id="KYpN7mPgzwmwDajfqQgc-31" value="1..1" style="text;html=1;strokeColor=none;fillColor=none;align=center;verticalAlign=middle;whiteSpace=wrap;rounded=0;" parent="WIyWlLk6GJQsqaUBKTNV-1" vertex="1">
          <mxGeometry x="1153" y="599" width="60" height="30" as="geometry" />
        </mxCell>
        <mxCell id="KYpN7mPgzwmwDajfqQgc-33" value="" style="endArrow=block;dashed=1;endFill=0;endSize=12;html=1;rounded=0;exitX=0.25;exitY=1;exitDx=0;exitDy=0;entryX=0.25;entryY=0;entryDx=0;entryDy=0;" parent="WIyWlLk6GJQsqaUBKTNV-1" source="KYpN7mPgzwmwDajfqQgc-14" target="KYpN7mPgzwmwDajfqQgc-27" edge="1">
          <mxGeometry width="160" relative="1" as="geometry">
            <mxPoint x="906" y="323" as="sourcePoint" />
            <mxPoint x="915" y="220" as="targetPoint" />
          </mxGeometry>
        </mxCell>
        <mxCell id="KYpN7mPgzwmwDajfqQgc-36" value="" style="endArrow=diamondThin;endFill=0;endSize=24;html=1;rounded=0;exitX=1;exitY=0.25;exitDx=0;exitDy=0;entryX=-0.002;entryY=0.122;entryDx=0;entryDy=0;entryPerimeter=0;" parent="WIyWlLk6GJQsqaUBKTNV-1" source="KYpN7mPgzwmwDajfqQgc-14" target="xIhYN-znWcPmmOZYE6xA-25" edge="1">
          <mxGeometry width="160" relative="1" as="geometry">
            <mxPoint x="1182" y="636" as="sourcePoint" />
            <mxPoint x="977" y="435" as="targetPoint" />
          </mxGeometry>
        </mxCell>
        <mxCell id="KYpN7mPgzwmwDajfqQgc-38" value="" style="endArrow=diamondThin;endFill=1;endSize=24;html=1;rounded=0;entryX=0;entryY=0.25;entryDx=0;entryDy=0;exitX=1;exitY=0.5;exitDx=0;exitDy=0;" parent="WIyWlLk6GJQsqaUBKTNV-1" source="xIhYN-znWcPmmOZYE6xA-50" target="KYpN7mPgzwmwDajfqQgc-14" edge="1">
          <mxGeometry width="160" relative="1" as="geometry">
            <mxPoint x="353" y="398" as="sourcePoint" />
            <mxPoint x="343" y="627" as="targetPoint" />
          </mxGeometry>
        </mxCell>
        <mxCell id="KYpN7mPgzwmwDajfqQgc-39" value="1..1" style="text;html=1;strokeColor=none;fillColor=none;align=center;verticalAlign=middle;whiteSpace=wrap;rounded=0;" parent="WIyWlLk6GJQsqaUBKTNV-1" vertex="1">
          <mxGeometry x="667" y="632" width="60" height="30" as="geometry" />
        </mxCell>
        <mxCell id="KYpN7mPgzwmwDajfqQgc-40" value="1..1" style="text;html=1;strokeColor=none;fillColor=none;align=center;verticalAlign=middle;whiteSpace=wrap;rounded=0;" parent="WIyWlLk6GJQsqaUBKTNV-1" vertex="1">
          <mxGeometry x="560" y="640" width="60" height="30" as="geometry" />
        </mxCell>
        <mxCell id="KYpN7mPgzwmwDajfqQgc-41" value="0..1" style="text;html=1;strokeColor=none;fillColor=none;align=center;verticalAlign=middle;whiteSpace=wrap;rounded=0;" parent="WIyWlLk6GJQsqaUBKTNV-1" vertex="1">
          <mxGeometry x="512" y="233" width="60" height="30" as="geometry" />
        </mxCell>
        <mxCell id="KYpN7mPgzwmwDajfqQgc-43" value="Players" style="text;html=1;strokeColor=none;fillColor=none;align=center;verticalAlign=middle;whiteSpace=wrap;rounded=0;rotation=46;" parent="WIyWlLk6GJQsqaUBKTNV-1" vertex="1">
          <mxGeometry x="566" y="292" width="60" height="30" as="geometry" />
        </mxCell>
        <mxCell id="KYpN7mPgzwmwDajfqQgc-44" value="InvitedPlayers" style="text;html=1;strokeColor=none;fillColor=none;align=center;verticalAlign=middle;whiteSpace=wrap;rounded=0;rotation=45;" parent="WIyWlLk6GJQsqaUBKTNV-1" vertex="1">
          <mxGeometry x="549" y="311" width="60" height="30" as="geometry" />
        </mxCell>
        <mxCell id="KYpN7mPgzwmwDajfqQgc-45" value="list" style="text;html=1;strokeColor=none;fillColor=none;align=center;verticalAlign=middle;whiteSpace=wrap;rounded=0;rotation=-48;" parent="WIyWlLk6GJQsqaUBKTNV-1" vertex="1">
          <mxGeometry x="1005" y="315" width="60" height="30" as="geometry" />
        </mxCell>
        <mxCell id="KYpN7mPgzwmwDajfqQgc-46" value="players" style="text;html=1;strokeColor=none;fillColor=none;align=center;verticalAlign=middle;whiteSpace=wrap;rounded=0;rotation=44;" parent="WIyWlLk6GJQsqaUBKTNV-1" vertex="1">
          <mxGeometry x="1052" y="526" width="60" height="30" as="geometry" />
        </mxCell>
        <mxCell id="KYpN7mPgzwmwDajfqQgc-47" value="0..n" style="text;html=1;strokeColor=none;fillColor=none;align=center;verticalAlign=middle;whiteSpace=wrap;rounded=0;" parent="WIyWlLk6GJQsqaUBKTNV-1" vertex="1">
          <mxGeometry x="1052" y="610" width="60" height="30" as="geometry" />
        </mxCell>
        <mxCell id="KYpN7mPgzwmwDajfqQgc-48" value="1..1" style="text;html=1;strokeColor=none;fillColor=none;align=center;verticalAlign=middle;whiteSpace=wrap;rounded=0;" parent="WIyWlLk6GJQsqaUBKTNV-1" vertex="1">
          <mxGeometry x="973" y="622" width="60" height="30" as="geometry" />
        </mxCell>
        <mxCell id="KYpN7mPgzwmwDajfqQgc-49" value="matches" style="text;html=1;strokeColor=none;fillColor=none;align=center;verticalAlign=middle;whiteSpace=wrap;rounded=0;rotation=0;" parent="WIyWlLk6GJQsqaUBKTNV-1" vertex="1">
          <mxGeometry x="609" y="640" width="60" height="30" as="geometry" />
        </mxCell>
        <mxCell id="KYpN7mPgzwmwDajfqQgc-50" value="list" style="text;html=1;strokeColor=none;fillColor=none;align=center;verticalAlign=middle;whiteSpace=wrap;rounded=0;rotation=-7;" parent="WIyWlLk6GJQsqaUBKTNV-1" vertex="1">
          <mxGeometry x="1008" y="622" width="60" height="30" as="geometry" />
        </mxCell>
      </root>
    </mxGraphModel>
  </diagram>
</mxfile>
